<svg width="79" height="100" fill="none" xmlns="http://www.w3.org/2000/svg"><path opacity=".2" d="M78.28 100H.584L24.52 75.168c6.315-6.57 11.264-12.117 14.848-16.64 3.584-4.608 6.23-8.49 7.936-11.648 1.792-3.157 2.901-5.717 3.328-7.68.427-1.963.64-3.627.64-4.992 0-1.45-.256-2.859-.768-4.224a9.367 9.367 0 00-2.048-3.584A9.391 9.391 0 0045 23.84c-1.28-.683-2.816-1.024-4.608-1.024-3.413 0-6.101 1.11-8.064 3.328-1.877 2.219-2.816 4.992-2.816 8.32 0 .939.128 2.304.384 4.096H2.504c0-5.632.896-10.752 2.688-15.36 1.877-4.608 4.48-8.576 7.808-11.904 3.328-3.328 7.253-5.888 11.776-7.68C29.384 1.824 34.419.928 39.88.928c5.376 0 10.325.853 14.848 2.56 4.608 1.707 8.576 4.096 11.904 7.168 3.328 3.072 5.93 6.741 7.808 11.008 1.877 4.181 2.816 8.747 2.816 13.696 0 5.29-1.152 10.197-3.456 14.72-2.219 4.437-5.803 9.003-10.752 13.696l-16 14.976H78.28V100z" fill="url(#paint0_linear_201_172)"/><defs><linearGradient id="paint0_linear_201_172" x1="-3" y1="67.983" x2="80.52" y2="67.983" gradientUnits="userSpaceOnUse"><stop stop-color="#EB5757"/><stop offset="1" stop-color="#F8BCAE"/></linearGradient></defs></svg>