<svg width="77" height="103" fill="none" xmlns="http://www.w3.org/2000/svg"><path opacity=".2" d="M34.272 41.12a14.01 14.01 0 001.664.128h1.28c3.157 0 5.717-.939 7.68-2.816 1.963-1.877 2.944-4.31 2.944-7.296 0-2.901-.939-5.248-2.816-7.04-1.792-1.792-4.139-2.688-7.04-2.688-3.072 0-5.547 1.024-7.424 3.072-1.877 2.048-2.816 4.693-2.816 7.936H4.576c.597-5.035 1.835-9.515 3.712-13.44 1.963-3.925 4.437-7.21 7.424-9.856 2.987-2.73 6.485-4.779 10.496-6.144C30.218 1.526 34.656.8 39.52.8c4.779 0 9.088.683 12.928 2.048 3.925 1.28 7.253 3.157 9.984 5.632 2.816 2.39 4.95 5.333 6.4 8.832 1.536 3.413 2.304 7.253 2.304 11.52 0 4.608-.896 8.405-2.688 11.392-1.707 2.901-4.181 5.419-7.424 7.552 4.95 1.536 8.79 4.31 11.52 8.32 2.816 3.925 4.224 8.79 4.224 14.592 0 4.779-.939 9.13-2.816 13.056-1.877 3.925-4.523 7.296-7.936 10.112-3.328 2.816-7.339 4.992-12.032 6.528-4.608 1.536-9.685 2.304-15.232 2.304-7.424 0-14.123-1.451-20.096-4.352-5.973-2.901-10.752-7.51-14.336-13.824-1.621-2.816-2.73-5.632-3.328-8.448a47.844 47.844 0 01-.768-8.576h24.832c.17 4.523 1.493 7.979 3.968 10.368 2.475 2.304 5.803 3.456 9.984 3.456 4.437 0 7.68-1.195 9.728-3.584 2.048-2.39 3.072-5.333 3.072-8.832 0-4.181-1.237-7.339-3.712-9.472-2.475-2.133-5.419-3.2-8.832-3.2-.853 0-1.664.085-2.432.256a37.68 37.68 0 00-2.56.384V41.12z" fill="url(#paint0_linear_201_234)"/><defs><linearGradient id="paint0_linear_201_234" x1="-4" y1="67.983" x2="79.52" y2="67.983" gradientUnits="userSpaceOnUse"><stop stop-color="#EB5757"/><stop offset="1" stop-color="#F8BCAE"/></linearGradient></defs></svg>