<svg width="647" height="834" fill="none" xmlns="http://www.w3.org/2000/svg"><g opacity=".2"><circle cx="585.985" cy="192.016" r="192.016" fill="url(#paint0_linear_20_142)"/><path d="M465.893 125c6.302 0 11.372 5.141 11.372 11.532v9.495h9.363c6.302 0 11.372 5.141 11.372 11.532v6.882c0 6.391-5.07 11.532-11.372 11.532h-9.363v9.495c0 6.391-5.07 11.532-11.372 11.532h-6.786c-6.302 0-11.372-5.141-11.372-11.532v-9.495h-9.363c-6.302 0-11.372-5.141-11.372-11.532v-6.882c0-6.391 5.07-11.532 11.372-11.532h9.363v-9.495c0-6.391 5.07-11.532 11.372-11.532h6.786z" stroke="#EB5757" stroke-width="1.999"/><circle cx="377.248" cy="456.264" r="284.248" transform="rotate(24.777 377.248 456.264)" fill="url(#paint1_linear_20_142)"/></g><defs><linearGradient id="paint0_linear_20_142" x1="586" y1="192" x2="528.5" y2="-47" gradientUnits="userSpaceOnUse"><stop stop-color="#EB5757"/><stop offset="1" stop-color="#F8BCAE"/></linearGradient><linearGradient id="paint1_linear_20_142" x1="415.882" y1="361.595" x2="413.204" y2="733.998" gradientUnits="userSpaceOnUse"><stop stop-color="#F8BCAE"/><stop offset="1" stop-color="#F8BCAE" stop-opacity="0"/></linearGradient></defs></svg>