<svg width="651" height="665" fill="none" xmlns="http://www.w3.org/2000/svg"><g opacity=".46"><circle r="113.718" transform="scale(-1 1) rotate(30 -586.676 -155.2)" fill="url(#paint0_linear_46_763)"/><path d="M154.82 298.057c-3.599 2.077-4.79 6.697-2.674 10.363l3.145 5.446-5.346 3.087c-3.598 2.077-4.79 6.697-2.673 10.363l2.279 3.948c2.117 3.666 6.713 4.944 10.312 2.866l5.345-3.086 3.145 5.446c2.116 3.666 6.713 4.944 10.311 2.867l3.875-2.237c3.598-2.077 4.79-6.698 2.673-10.364l-3.144-5.446 5.345-3.086c3.598-2.078 4.79-6.697 2.674-10.363l-2.28-3.948c-2.116-3.666-6.713-4.944-10.311-2.867l-5.346 3.087-3.144-5.447c-2.117-3.666-6.714-4.944-10.312-2.866l-3.874 2.237z" stroke="#EB5757" stroke-width="1.999"/><circle r="168.34" transform="scale(-1 1) rotate(54.777 -511.947 -157.06)" fill="url(#paint1_linear_46_763)"/><path d="M267.764 399.07c-5.634 3.253-7.519 10.457-4.226 16.159l4.891 8.473-8.371 4.833c-5.635 3.253-7.519 10.457-4.227 16.16l3.546 6.141c3.292 5.703 10.473 7.673 16.108 4.42l8.372-4.834 4.891 8.473c3.292 5.702 10.474 7.673 16.108 4.42l6.068-3.504c5.635-3.253 7.519-10.457 4.226-16.16l-4.891-8.472 8.371-4.833c5.635-3.254 7.52-10.457 4.227-16.16l-3.545-6.141c-3.293-5.703-10.474-7.673-16.109-4.42l-8.371 4.833-4.892-8.472c-3.292-5.703-10.473-7.673-16.108-4.42l-6.068 3.504z" stroke="#F7BCBC" stroke-width="1.999"/></g><defs><linearGradient id="paint0_linear_46_763" x1="182.722" y1="207.577" x2="30.519" y2="0" gradientUnits="userSpaceOnUse"><stop stop-color="#F7BCBC"/><stop stop-color="#ED6A67" stop-opacity=".61"/><stop stop-color="#EE6E6A" stop-opacity=".797"/><stop offset="1" stop-color="#FBD9D5"/></linearGradient><linearGradient id="paint1_linear_46_763" x1="215.513" y1="169.914" x2="51.409" y2="304.039" gradientUnits="userSpaceOnUse"><stop stop-color="#FCE4DF"/><stop offset=".981" stop-color="#F8BCAE" stop-opacity="0"/></linearGradient></defs></svg>