<svg width="475" height="567" fill="none" xmlns="http://www.w3.org/2000/svg"><g opacity=".2"><circle r="128.765" transform="matrix(-1 0 0 1 81.765 129.227)" fill="url(#paint0_linear_23_1035)"/><path d="M65.967 153.462c-4.704 0-8.489 3.856-8.489 8.649v7.121H50.49c-4.704 0-8.489 3.856-8.489 8.649v5.162c0 4.793 3.785 8.649 8.49 8.649h6.988v7.121c0 4.793 3.785 8.649 8.49 8.649h5.065c4.705 0 8.489-3.856 8.489-8.649v-7.121h6.99c4.704 0 8.488-3.856 8.488-8.649v-5.162c0-4.793-3.784-8.649-8.489-8.649h-6.989v-7.121c0-4.793-3.784-8.649-8.489-8.649h-5.066z" stroke="#EB5757" stroke-width="1.999"/><circle r="190.615" transform="scale(-1 1) rotate(24.777 -825.26 -348.566)" fill="url(#paint1_linear_23_1035)"/><path d="M119.533 316.462c-7.367 0-13.293 5.998-13.293 13.454v11.077H95.294c-7.367 0-13.294 5.998-13.294 13.454v8.03c0 7.456 5.927 13.453 13.294 13.453h10.946v11.078c0 7.456 5.926 13.454 13.293 13.454h7.934c7.367 0 13.294-5.998 13.294-13.454V375.93h10.945c7.368 0 13.294-5.997 13.294-13.453v-8.03c0-7.456-5.926-13.454-13.294-13.454h-10.945v-11.077c0-7.456-5.927-13.454-13.294-13.454h-7.934z" stroke="#F7BCBC" stroke-width="1.999"/></g><defs><linearGradient id="paint0_linear_23_1035" x1="206.9" y1="235.044" x2="34.557" y2="0" gradientUnits="userSpaceOnUse"><stop stop-color="#F7BCBC"/><stop stop-color="#ED6A67" stop-opacity=".61"/><stop stop-color="#EE6E6A" stop-opacity=".797"/><stop offset="1" stop-color="#FBD9D5"/></linearGradient><linearGradient id="paint1_linear_23_1035" x1="244.03" y1="192.397" x2="58.211" y2="344.27" gradientUnits="userSpaceOnUse"><stop stop-color="#FCE4DF"/><stop offset=".981" stop-color="#F8BCAE" stop-opacity="0"/></linearGradient></defs></svg>