<svg width="803" height="828" fill="none" xmlns="http://www.w3.org/2000/svg"><g opacity=".2"><circle cx="674.867" cy="309.609" r="90.52" transform="rotate(40.418 674.867 309.609)" fill="url(#paint0_linear_46_543)"/><circle cx="151.543" cy="560.005" r="20.957" transform="rotate(40.418 151.543 560.005)" fill="url(#paint1_linear_46_543)"/><path d="M672.276 329.781c2.518 2.144 2.786 5.932.601 8.498l-3.246 3.811 3.741 3.186c2.518 2.144 2.786 5.932.601 8.498l-2.352 2.762c-2.185 2.566-5.968 2.905-8.486.76l-3.74-3.185-3.246 3.811c-2.185 2.565-5.968 2.904-8.486.76l-2.711-2.309c-2.518-2.144-2.786-5.933-.601-8.498l3.246-3.812-3.741-3.185c-2.518-2.144-2.786-5.933-.601-8.498l2.352-2.763c2.185-2.565 5.968-2.904 8.486-.76l3.74 3.186 3.246-3.811c2.185-2.566 5.968-2.905 8.486-.76l2.711 2.309z" stroke="#EB5757" stroke-width="1.999"/><circle cx="515.675" cy="344.438" r="134" transform="rotate(65.195 515.675 344.438)" fill="url(#paint2_linear_46_543)"/><circle cx="76.822" cy="522.284" r="40.551" transform="rotate(65.195 76.822 522.284)" fill="url(#paint3_linear_46_543)"/><path d="M569.314 392.605c3.943 3.357 4.381 9.269.982 13.259l-5.049 5.929 5.858 4.989c3.944 3.358 4.382 9.269.983 13.26l-3.659 4.297c-3.399 3.991-9.304 4.499-13.247 1.141l-5.858-4.988-5.049 5.928c-3.399 3.991-9.305 4.5-13.248 1.142l-4.246-3.616c-3.943-3.358-4.381-9.269-.982-13.26l5.049-5.929-5.859-4.989c-3.943-3.358-4.381-9.269-.982-13.259l3.659-4.298c3.399-3.99 9.304-4.499 13.247-1.141l5.858 4.989 5.05-5.929c3.398-3.991 9.303-4.499 13.246-1.142l4.247 3.617z" stroke="#F7BCBC" stroke-width="1.999"/></g><defs><linearGradient id="paint0_linear_46_543" x1="729.795" y1="384.322" x2="608.64" y2="219.09" gradientUnits="userSpaceOnUse"><stop stop-color="#F7BCBC"/><stop stop-color="#ED6A67" stop-opacity=".61"/><stop stop-color="#EE6E6A" stop-opacity=".797"/><stop offset="1" stop-color="#FBD9D5"/></linearGradient><linearGradient id="paint1_linear_46_543" x1="164.26" y1="577.302" x2="136.211" y2="539.048" gradientUnits="userSpaceOnUse"><stop stop-color="#F7BCBC"/><stop stop-color="#ED6A67" stop-opacity=".61"/><stop stop-color="#EE6E6A" stop-opacity=".797"/><stop offset="1" stop-color="#FBD9D5"/></linearGradient><linearGradient id="paint2_linear_46_543" x1="553.225" y1="345.691" x2="422.597" y2="452.455" gradientUnits="userSpaceOnUse"><stop stop-color="#FCE4DF"/><stop offset=".981" stop-color="#F8BCAE" stop-opacity="0"/></linearGradient><linearGradient id="paint3_linear_46_543" x1="88.185" y1="522.663" x2="48.655" y2="554.972" gradientUnits="userSpaceOnUse"><stop stop-color="#FCE4DF"/><stop offset=".981" stop-color="#F8BCAE" stop-opacity="0"/></linearGradient></defs></svg>