<svg width="423" height="455" fill="none" xmlns="http://www.w3.org/2000/svg"><g opacity=".58"><circle cx="289.256" cy="133.188" r="94.717" transform="rotate(51.113 289.256 133.188)" fill="url(#paint0_linear_43_380)"/><path d="M254.967 98c-4.704 0-8.489 3.856-8.489 8.649v7.121h-6.989c-4.705 0-8.489 3.856-8.489 8.649v5.162c0 4.793 3.784 8.649 8.489 8.649h6.989v7.121c0 4.793 3.785 8.649 8.489 8.649h5.066c4.704 0 8.489-3.856 8.489-8.649v-7.121h6.989c4.705 0 8.489-3.856 8.489-8.649v-5.162c0-4.793-3.784-8.649-8.489-8.649h-6.989v-7.121c0-4.793-3.785-8.649-8.489-8.649h-5.066z" stroke="#EB5757" stroke-width="1.999"/><circle cx="186.067" cy="268.933" r="140.213" transform="rotate(24.777 186.067 268.933)" fill="url(#paint1_linear_43_380)"/><path d="M211.533 276c-7.367 0-13.293 5.998-13.293 13.454v11.078h-10.946c-7.368 0-13.294 5.997-13.294 13.453v8.03c0 7.456 5.926 13.453 13.294 13.453h10.946v11.078c0 7.456 5.926 13.454 13.293 13.454h7.934c7.367 0 13.293-5.998 13.293-13.454v-11.078h10.946c7.368 0 13.294-5.997 13.294-13.453v-8.03c0-7.456-5.926-13.453-13.294-13.453H232.76v-11.078c0-7.456-5.926-13.454-13.293-13.454h-7.934z" stroke="#F7BCBC" stroke-width="1.999"/></g><defs><linearGradient id="paint0_linear_43_380" x1="346.73" y1="211.364" x2="219.958" y2="38.471" gradientUnits="userSpaceOnUse"><stop stop-color="#F7BCBC"/><stop stop-color="#ED6A67" stop-opacity=".61"/><stop stop-color="#EE6E6A" stop-opacity=".797"/><stop offset="1" stop-color="#FFFCFC"/></linearGradient><linearGradient id="paint1_linear_43_380" x1="225.357" y1="270.244" x2="88.673" y2="381.958" gradientUnits="userSpaceOnUse"><stop stop-color="#FCE4DF"/><stop offset=".981" stop-color="#F8BCAE" stop-opacity="0"/></linearGradient></defs></svg>