<svg width="638" height="466" fill="none" xmlns="http://www.w3.org/2000/svg"><g opacity=".2"><circle cx="-19.673" cy="353.988" r="152.031" transform="rotate(-115.226 -19.673 353.988)" fill="url(#paint0_linear_97_1198)"/><path d="M-27.149 439.54c-2.127-4.362-.155-9.547 4.422-11.631l6.802-3.097-3.16-6.48c-2.127-4.362-.155-9.547 4.422-11.631l4.93-2.245c4.577-2.084 9.97-.251 12.097 4.111l3.16 6.481 6.8-3.097c4.578-2.084 9.97-.251 12.097 4.111l2.29 4.697c2.127 4.362.155 9.547-4.422 11.631l-6.8 3.097 3.159 6.48c2.126 4.362.155 9.547-4.423 11.631l-4.93 2.245c-4.577 2.084-9.97.251-12.096-4.111l-3.16-6.48-6.8 3.096c-4.578 2.084-9.971.251-12.098-4.111l-2.29-4.697z" stroke="#EB5757" stroke-width="1.999"/><circle cx="240.033" cy="414.327" r="225.057" transform="rotate(-90.45 240.033 414.327)" fill="url(#paint1_linear_97_1198)"/></g><defs><linearGradient id="paint0_linear_97_1198" x1="-19.661" y1="353.976" x2="-65.188" y2="164.744" gradientUnits="userSpaceOnUse"><stop stop-color="#EB5757"/><stop offset="1" stop-color="#F8BCAE"/></linearGradient><linearGradient id="paint1_linear_97_1198" x1="270.621" y1="339.372" x2="268.502" y2="634.227" gradientUnits="userSpaceOnUse"><stop stop-color="#F8BCAE"/><stop offset="1" stop-color="#F8BCAE" stop-opacity="0"/></linearGradient></defs></svg>