<svg width="101" height="109" fill="none" xmlns="http://www.w3.org/2000/svg"><ellipse rx="31" ry="31.073" transform="matrix(-1 0 0 1 31.875 77.415)" fill="url(#paint0_linear_40_286)"/><g clip-path="url(#clip0_40_286)"><path d="M82.799 15.123h8.83a7.432 7.432 0 017.44 7.458v69.116a7.432 7.432 0 01-7.44 7.457H33.57a7.432 7.432 0 01-7.44-7.457V22.581a7.432 7.432 0 017.44-7.457h8.748" stroke="#526E7E" stroke-width="1.999" stroke-linecap="round" stroke-linejoin="round"/><path d="M52.837 2.358a3.716 3.716 0 00-3.72 3.728v4.81h-2.482a3.716 3.716 0 00-3.72 3.728v8.927a3.716 3.716 0 003.72 3.728h31.93c2.06 0 3.72-1.663 3.72-3.728v-8.927a3.716 3.716 0 00-3.72-3.729h-2.48V6.086a3.718 3.718 0 00-3.722-3.728H52.837z" stroke="#526E7E" stroke-width="1.999" stroke-linecap="round" stroke-linejoin="round"/><path d="M40.538 54.09a.741.741 0 01-.677-.823 23.222 23.222 0 017.01-14.012 23.12 23.12 0 0115.058-6.388 23.113 23.113 0 0115.513 5.18 23.211 23.211 0 018.09 13.416.742.742 0 01-.611.874l-.114.019a.78.78 0 01-.888-.622 21.573 21.573 0 00-7.507-12.416 21.481 21.481 0 00-14.419-4.815 21.488 21.488 0 00-13.995 5.937 21.582 21.582 0 00-6.509 12.97.781.781 0 01-.836.69l-.115-.01zm45.308 3.975a.741.741 0 01.732.775 23.23 23.23 0 01-6.044 14.458 23.106 23.106 0 01-30.418 3.29 23.201 23.201 0 01-8.98-12.834.742.742 0 01.55-.914l.112-.027a.78.78 0 01.927.56 21.564 21.564 0 008.333 11.876 21.475 21.475 0 0028.271-3.057 21.59 21.59 0 005.615-13.384.781.781 0 01.787-.745l.115.002z" fill="#526E7E"/><path d="M75.33 50.499c-3.846-4.957-9.73-1.377-11.676 1.032-1.717-2.294-6.388-5.713-11.333-1.032-6.18 6.884 2.404 20.308 12.363 20.308C74.3 69.43 80.481 56.007 75.33 50.5z" stroke="#526E7E" stroke-width="2" stroke-linecap="round" stroke-linejoin="round"/></g><defs><linearGradient id="paint0_linear_40_286" x1="49.811" y1="56.719" x2="8.193" y2=".093" gradientUnits="userSpaceOnUse"><stop stop-color="#F2FFE0"/><stop stop-color="#ED6A67" stop-opacity=".61"/><stop stop-color="#F2FDE4"/><stop offset="1" stop-color="#F2FDE4" stop-opacity=".25"/></linearGradient><clipPath id="clip0_40_286"><path fill="#fff" transform="translate(24 .234)" d="M0 0h76.923v100.234H0z"/></clipPath></defs></svg>