<svg width="94" height="109" fill="none" xmlns="http://www.w3.org/2000/svg"><ellipse rx="31" ry="31.073" transform="matrix(-1 0 0 1 31.658 77.491)" fill="url(#paint0_linear_40_284)"/><g clip-path="url(#clip0_40_284)" stroke="#526E7E" stroke-width="1.999"><path d="M62.473 77.816h7.34m10.593-46.964v51.61c0 3-2.489 5.416-5.58 5.416h-38.58c-3.092 0-5.58-2.415-5.58-5.415v-51.61h49.74zM41.358 67.917h28.455-28.455zm0 9.899h14.178-14.178z" stroke-linecap="round" stroke-linejoin="round"/><path d="M75.722 15.162h8.825c4.119 0 7.435 3.332 7.435 7.47v69.23c0 4.138-3.316 7.47-7.435 7.47H26.524c-4.12 0-7.435-3.332-7.435-7.47v-69.23c0-4.138 3.316-7.47 7.435-7.47h8.743" stroke-linecap="round" stroke-linejoin="round"/><path d="M45.778 2.375a3.718 3.718 0 00-3.717 3.735v4.817h-2.48a3.718 3.718 0 00-3.718 3.734v8.942a3.718 3.718 0 003.718 3.734h31.91a3.718 3.718 0 003.717-3.734v-8.942a3.718 3.718 0 00-3.718-3.734h-2.478V6.11a3.72 3.72 0 00-3.72-3.735H45.779z" stroke-linecap="round" stroke-linejoin="round"/><path d="M54.484 38.048a3.522 3.522 0 00-3.522 3.539V44.5h-2.9a3.522 3.522 0 00-3.522 3.539v2.112a3.522 3.522 0 003.522 3.538h2.9v2.914a3.522 3.522 0 003.522 3.538h2.102a3.522 3.522 0 003.523-3.538v-2.914h2.9a3.522 3.522 0 003.522-3.538v-2.112A3.522 3.522 0 0063.01 44.5h-2.9v-2.913a3.522 3.522 0 00-3.523-3.539h-2.102z"/></g><defs><linearGradient id="paint0_linear_40_284" x1="49.811" y1="56.719" x2="8.193" y2=".093" gradientUnits="userSpaceOnUse"><stop stop-color="#FCEEC1"/><stop stop-color="#ED6A67" stop-opacity=".61"/><stop stop-color="#FCEEC1"/><stop offset="1" stop-color="#FCEEC1" stop-opacity=".25"/></linearGradient><clipPath id="clip0_40_284"><path fill="#fff" transform="translate(17 .234)" d="M0 0h77v100.234H0z"/></clipPath></defs></svg>