<svg width="146" height="38" fill="none" xmlns="http://www.w3.org/2000/svg"><path d="M16 30a8 8 0 11-16 0 8 8 0 0116 0zm62-13a4 4 0 11-8 0 4 4 0 018 0z" fill="#F8BCAE"/><path d="M26.25 2.28v17.64h7.05v4.98H20.37V2.28h5.88zm15.007 7.23V24.9h-5.43V9.51h5.43zm-5.79-5.91c0-.42.08-.81.24-1.17.16-.38.38-.71.66-.99s.6-.5.96-.66c.38-.16.78-.24 1.2-.24.42 0 .81.08 1.17.24.38.16.71.38.99.66s.5.61.66.99c.16.36.24.75.24 1.17 0 .42-.08.82-.24 1.2-.16.36-.38.68-.66.96-.28.28-.61.5-.99.66-.36.16-.75.24-1.17.24-.42 0-.82-.08-1.2-.24-.36-.16-.68-.38-.96-.66-.28-.28-.5-.6-.66-.96-.16-.38-.24-.78-.24-1.2zM50.398 0v15.06l5.7-5.55h7.44l-7.71 7.11 8.16 8.28h-7.62l-5.97-6.27v6.27h-5.43V0h5.43zm19.619 17.16c0 .5.09.97.27 1.41.18.42.42.79.72 1.11.32.32.69.57 1.11.75.44.18.91.27 1.41.27.48 0 .93-.09 1.35-.27.44-.18.81-.43 1.11-.75.32-.32.57-.69.75-1.11.2-.42.3-.87.3-1.35 0-.48-.1-.93-.3-1.35-.18-.44-.43-.82-.75-1.14-.3-.32-.67-.57-1.11-.75a3.39 3.39 0 00-1.35-.27c-.5 0-.97.09-1.41.27-.42.18-.79.43-1.11.75-.3.32-.54.69-.72 1.11-.18.4-.27.84-.27 1.32zm6.84-7.65h5.46V24.9h-5.46v-1.71c-1.16 1.46-2.73 2.19-4.71 2.19-1.12 0-2.15-.2-3.09-.6-.94-.42-1.76-1-2.46-1.74s-1.25-1.61-1.65-2.61c-.38-1-.57-2.09-.57-3.27 0-1.1.19-2.14.57-3.12.38-1 .91-1.87 1.59-2.61.68-.74 1.49-1.32 2.43-1.74.94-.44 1.98-.66 3.12-.66 1.92 0 3.51.67 4.77 2.01V9.51zm9.156 0h5.43v2.52c.58-.92 1.29-1.62 2.13-2.1.84-.5 1.82-.75 2.94-.75h.45c.18 0 .38.02.6.06v5.19a5.16 5.16 0 00-2.34-.54c-1.26 0-2.21.38-2.85 1.14-.62.74-.93 1.83-.93 3.27v6.6h-5.43V9.51zm11.829 12.51c0-.48.09-.93.27-1.35.18-.44.43-.82.75-1.14.32-.32.69-.57 1.11-.75.44-.18.9-.27 1.38-.27.48 0 .93.09 1.35.27.44.18.82.43 1.14.75.32.32.57.7.75 1.14.18.42.27.87.27 1.35 0 .48-.09.94-.27 1.38-.18.42-.43.79-.75 1.11-.32.32-.7.57-1.14.75-.42.18-.87.27-1.35.27-.48 0-.94-.09-1.38-.27a3.51 3.51 0 01-1.86-1.86c-.18-.44-.27-.9-.27-1.38zm15.895-12.51v8.67c0 1.9.92 2.85 2.76 2.85 1.84 0 2.76-.95 2.76-2.85V9.51h5.43v9.72c0 2.08-.69 3.64-2.07 4.68-1.36 1.04-3.4 1.56-6.12 1.56s-4.77-.52-6.15-1.56c-1.36-1.04-2.04-2.6-2.04-4.68V9.51h5.43zm19.679 7.65c0 .5.09.97.27 1.41.18.42.42.79.72 1.11.32.32.69.57 1.11.75.44.18.91.27 1.41.27.48 0 .93-.09 1.35-.27.44-.18.81-.43 1.11-.75.32-.32.57-.69.75-1.11.2-.42.3-.87.3-1.35 0-.48-.1-.93-.3-1.35-.18-.44-.43-.82-.75-1.14-.3-.32-.67-.57-1.11-.75a3.39 3.39 0 00-1.35-.27c-.5 0-.97.09-1.41.27-.42.18-.79.43-1.11.75-.3.32-.54.69-.72 1.11-.18.4-.27.84-.27 1.32zm6.84-7.65h5.46V24.9h-5.46v-1.71c-1.16 1.46-2.73 2.19-4.71 2.19-1.12 0-2.15-.2-3.09-.6-.94-.42-1.76-1-2.46-1.74s-1.25-1.61-1.65-2.61c-.38-1-.57-2.09-.57-3.27 0-1.1.19-2.14.57-3.12.38-1 .91-1.87 1.59-2.61.68-.74 1.49-1.32 2.43-1.74.94-.44 1.98-.66 3.12-.66 1.92 0 3.51.67 4.77 2.01V9.51z" fill="#EB5757"/></svg>