<svg width="26" height="30" fill="none" xmlns="http://www.w3.org/2000/svg"><path fill-rule="evenodd" clip-rule="evenodd" d="M13 2.25A10.25 10.25 0 002.75 12.5c0 3.973 2.578 7.792 5.35 10.718a37.032 37.032 0 004.9 4.308 37.03 37.03 0 004.899-4.307c2.773-2.927 5.351-6.746 5.351-10.719A10.25 10.25 0 0013 2.25zm0 26.5l-.555.832-.004-.003-.007-.005-.028-.019-.102-.07a35.312 35.312 0 01-1.685-1.262 39.03 39.03 0 01-3.97-3.629C3.797 21.584.75 17.277.75 12.5a12.25 12.25 0 1124.5 0c0 4.777-3.047 9.083-5.899 12.094a39.027 39.027 0 01-5.282 4.627 22.83 22.83 0 01-.475.334l-.028.02-.008.005-.002.001s-.001.001-.556-.831zm0 0l.555.832a1.001 1.001 0 01-1.11 0L13 28.75zm0-19a2.75 2.75 0 100 5.5 2.75 2.75 0 000-5.5zM8.25 12.5a4.75 4.75 0 119.5 0 4.75 4.75 0 01-9.5 0z" fill="#EB5757"/></svg>