<svg width="110" height="111" fill="none" xmlns="http://www.w3.org/2000/svg"><ellipse rx="31" ry="31.073" transform="matrix(-1 0 0 1 78.106 79.345)" fill="url(#paint0_linear_40_287)"/><path d="M88.113 82.203H9.711c-6.222 0-8.338 3.39-8.618 5.085-.07.424-.168 2.797 0 8.9s5.815 6.64 8.618 6.145h78.402c8.24 0 10.02-4.096 9.88-6.145v-8.9c0-5.424-6.587-5.65-9.88-5.085zM9.71 81.355v-9.536c-.07-1.765.884-5.297 5.256-5.297h33c1.962-.141 5.928.72 6.096 5.297.168 4.578.07 8.265 0 9.536m17.026.212c2.172-4.945 3.951-18.224-6.306-31.785 0-.212-8.198 1.483-12.822-5.086-4.624-6.569-1.682-14.833 2.102-18.012 3.783-3.178 11.981-3.178 15.344 0 3.363 3.179 4.414 4.45 5.045 11.231 3.573 3.602 16.815 20.343 13.452 43.652" stroke="#526E7E" stroke-width="2" stroke-linecap="round"/><path d="M53.01 51.053c-1.82 2.331-6.179 6.484-9.038 4.45-2.858-2.034-9.598-7.628-12.611-10.171-2.032-1.695-4.372-6.57 2.522-12.502 2.523-3.052 13.803-17.376 19.128-24.157 1.12-1.695 4.204-4.408 7.567-1.695 3.363 2.712 9.389 7.063 11.981 8.9.84 1.2 2.018 4.407 0 7.628M60.788 6.978l3.994-5.086c.77-.494 2.775-1.187 4.624 0 1.85 1.187 4.134 3.037 5.045 3.814.98.777 2.648 2.67 1.471 4.026-1.177 1.357-2.732 4.097-3.363 5.298M42.452 55.306L37.85 59.84c-.826.392-2.901.822-4.586-.591-1.686-1.414-3.719-3.542-4.524-4.429-.875-.896-2.291-2.987-.953-4.182 1.338-1.194 3.226-3.714 4.003-4.824M18.54 76.27h25.853M11.182 93.433h75.67" stroke="#526E7E" stroke-width="2" stroke-linecap="round"/><path d="M60.916 29.262a2.354 2.354 0 00-2.35 2.368v1.951h-1.934a2.354 2.354 0 00-2.35 2.369v1.414a2.354 2.354 0 002.35 2.369h1.935v1.95a2.354 2.354 0 002.35 2.37h1.402a2.354 2.354 0 002.35-2.37v-1.95h1.935a2.354 2.354 0 002.35-2.37V35.95a2.354 2.354 0 00-2.35-2.369h-1.935v-1.95a2.354 2.354 0 00-2.35-2.37h-1.403z" stroke="#526E7E" stroke-width="1.999"/><defs><linearGradient id="paint0_linear_40_287" x1="49.811" y1="56.719" x2="8.193" y2=".093" gradientUnits="userSpaceOnUse"><stop stop-color="#E0D5FA"/><stop stop-color="#ED6A67" stop-opacity=".61"/><stop stop-color="#E0D5FA"/><stop offset="1" stop-color="#E0D5FA" stop-opacity=".25"/></linearGradient></defs></svg>