<svg width="100" height="18" fill="none" xmlns="http://www.w3.org/2000/svg"><path d="M5.649 6.75a2.818 2.818 0 01-2.825 2.813A2.818 2.818 0 010 6.75a2.818 2.818 0 012.824-2.813A2.82 2.82 0 015.649 6.75zm11.297-3.937a2.818 2.818 0 01-2.824 2.812 2.818 2.818 0 01-2.825-2.813A2.818 2.818 0 0114.122 0c1.56 0 2.824 1.26 2.824 2.813zm11.298 2.812a2.818 2.818 0 01-2.825 2.813 2.818 2.818 0 01-2.824-2.813 2.818 2.818 0 012.824-2.813 2.82 2.82 0 012.825 2.813zm11.297 6.75a2.818 2.818 0 01-2.824 2.813 2.818 2.818 0 01-2.824-2.813 2.818 2.818 0 012.824-2.813c1.56 0 2.824 1.26 2.824 2.813zm11.298 2.813A2.818 2.818 0 0148.014 18a2.818 2.818 0 01-2.824-2.813 2.818 2.818 0 012.825-2.812c1.56 0 2.824 1.26 2.824 2.813zm11.297-2.813a2.818 2.818 0 01-2.824 2.813 2.819 2.819 0 01-2.824-2.813 2.819 2.819 0 012.824-2.813c1.56 0 2.824 1.26 2.824 2.813zm11.298-3.937a2.818 2.818 0 01-2.824 2.812 2.818 2.818 0 01-2.825-2.813 2.818 2.818 0 012.825-2.812c1.56 0 2.824 1.26 2.824 2.813zm11.297 0a2.819 2.819 0 01-2.824 2.812 2.818 2.818 0 01-2.824-2.813 2.818 2.818 0 012.824-2.812 2.82 2.82 0 012.825 2.813zm14.506-1.511a1.799 1.799 0 010 2.942l-7.24 5.1c-1.194.841-2.842-.011-2.842-1.47V3.296c0-1.459 1.648-2.312 2.842-1.47l7.24 5.1z" fill="#526E7E" fill-opacity=".57"/></svg>