<svg width="100" height="110" fill="none" xmlns="http://www.w3.org/2000/svg"><ellipse rx="31" ry="31.073" transform="matrix(1 0 0 -1 56.23 78.415)" fill="url(#paint0_linear_40_285)"/><path d="M39.626 51.836a4.234 4.234 0 00-6.007.108l-2.428 2.52-2.518-2.431a4.234 4.234 0 00-6.006.108l-1.76 1.827a4.247 4.247 0 00.108 6.014l2.517 2.432-2.428 2.52a4.247 4.247 0 00.108 6.015l1.824 1.762a4.234 4.234 0 006.007-.108l2.428-2.52 2.518 2.431a4.234 4.234 0 006.006-.108l1.76-1.827a4.247 4.247 0 00-.108-6.014l-2.517-2.432 2.428-2.52a4.247 4.247 0 00-.108-6.015l-1.824-1.762z" stroke="#526E7E" stroke-width="1.999"/><path d="M16.718 24.019h30.216M23.341 15.73H39.07" stroke="#526E7E" stroke-width="2" stroke-linecap="round"/><path d="M19.57 2.053a4.476 4.476 0 00-4.483 4.49v5.79h-2.991a4.476 4.476 0 00-4.483 4.489V27.57a4.476 4.476 0 004.483 4.489H50.58a4.476 4.476 0 004.483-4.49V16.823a4.477 4.477 0 00-4.483-4.49h-2.988v-5.79a4.478 4.478 0 00-4.486-4.489H19.57z" stroke="#526E7E" stroke-width="1.999" stroke-linecap="round" stroke-linejoin="round"/><path d="M52.315 100.703H10.096c-6.623 0-8.278-5.802-8.278-8.703V41.024c0-6.631 5.519-8.842 8.278-9.118 12.28.138 38.245.332 43.874 0 5.63-.331 7.312 5.94 7.45 9.118V92c0 6.631-6.07 8.565-9.105 8.703z" stroke="#526E7E" stroke-width="2"/><path d="M93.479 72.993a7.525 7.525 0 00-5.724-.787 7.561 7.561 0 00-4.608 3.491l-.557.954a.76.76 0 00.27 1.037c.36.21.826.089 1.036-.271l.558-.954a6.022 6.022 0 018.26-2.162 6.05 6.05 0 012.156 8.276l-2.927 5.004-6.249-3.664a.759.759 0 00-.765 1.308l6.255 3.667-2.927 5.004a6.057 6.057 0 01-3.682 2.796 6.012 6.012 0 01-4.577-.635 6.027 6.027 0 01-2.052-1.979.756.756 0 00-1.04-.235.758.758 0 00-.235 1.04 7.513 7.513 0 002.565 2.477 7.525 7.525 0 005.724.787 7.56 7.56 0 004.607-3.49l6.618-11.316c2.101-3.606.892-8.238-2.706-10.348z" fill="#526E7E"/><path d="M78.628 75.675c-4.376-2.566-10.004-1.094-12.566 3.288-2.563 4.383-1.092 10.017 3.284 12.583 4.377 2.566 10.004 1.094 12.567-3.288 2.56-4.377 1.092-10.017-3.285-12.583zm-.762 1.302c3.435 2.014 4.73 6.301 3.096 9.845l-13.184-7.73c2.287-3.161 6.654-4.129 10.088-2.115zm-7.758 13.267c-3.435-2.014-4.73-6.301-3.095-9.844l13.184 7.73c-2.287 3.16-6.654 4.128-10.09 2.114z" fill="#526E7E"/><defs><linearGradient id="paint0_linear_40_285" x1="49.811" y1="56.719" x2="8.193" y2=".093" gradientUnits="userSpaceOnUse"><stop stop-color="#C1EBF9"/><stop stop-color="#ED6A67" stop-opacity=".61"/><stop stop-color="#C1EBF9"/><stop offset="1" stop-color="#C1EBF9" stop-opacity=".24"/></linearGradient></defs></svg>