<svg width="113" height="114" fill="none" xmlns="http://www.w3.org/2000/svg"><path fill-rule="evenodd" clip-rule="evenodd" d="M80.583 18.938C80.583 8.453 72.218 0 61.805 0h-10.61C40.782 0 32.417 8.453 32.417 18.938V32.71H18.779C8.365 32.71 0 41.162 0 51.647v10.706c0 10.485 8.365 18.938 18.78 18.938h13.638v13.77c0 10.485 8.365 18.939 18.778 18.939h10.61c10.413 0 18.778-8.454 18.778-18.94V81.292h13.638c10.414 0 18.779-8.453 18.779-18.938V51.647c0-10.485-8.365-18.938-18.779-18.938H80.583V18.94zM61.805 2c9.292 0 16.779 7.54 16.779 16.938v15.77H94.22c9.293 0 16.779 7.541 16.779 16.939v10.706c0 9.398-7.486 16.938-16.779 16.938H78.584v15.77c0 9.398-7.487 16.939-16.779 16.939h-10.61c-9.292 0-16.779-7.541-16.779-16.94V79.292H18.78C9.487 79.292 2 71.752 2 62.354V51.647c0-9.398 7.487-16.938 16.78-16.938h15.637v-15.77c0-9.398 7.487-16.94 16.779-16.94h10.61z" fill="#F8D8D8"/></svg>