<svg width="647" height="834" viewBox="0 0 647 834" fill="none" xmlns="http://www.w3.org/2000/svg">
<g opacity="0.2">
<circle cx="585.985" cy="192.016" r="192.016" fill="url(#paint0_linear_20_142)"/>
<path d="M465.893 125C472.195 125 477.265 130.141 477.265 136.532V146.027H486.628C492.93 146.027 498 151.168 498 157.559V164.441C498 170.832 492.93 175.973 486.628 175.973H477.265V185.468C477.265 191.859 472.195 197 465.893 197H459.107C452.805 197 447.735 191.859 447.735 185.468V175.973H438.372C432.07 175.973 427 170.832 427 164.441V157.559C427 151.168 432.07 146.027 438.372 146.027H447.735V136.532C447.735 130.141 452.805 125 459.107 125H465.893Z" stroke="#EB5757" stroke-width="1.99941"/>
<circle cx="377.248" cy="456.264" r="284.248" transform="rotate(24.7769 377.248 456.264)" fill="url(#paint1_linear_20_142)"/>
</g>
<defs>
<linearGradient id="paint0_linear_20_142" x1="586" y1="192" x2="528.5" y2="-47" gradientUnits="userSpaceOnUse">
<stop stop-color="#EB5757"/>
<stop offset="1" stop-color="#F8BCAE"/>
</linearGradient>
<linearGradient id="paint1_linear_20_142" x1="415.882" y1="361.595" x2="413.204" y2="733.998" gradientUnits="userSpaceOnUse">
<stop stop-color="#F8BCAE"/>
<stop offset="1" stop-color="#F8BCAE" stop-opacity="0"/>
</linearGradient>
</defs>
</svg>
