<svg width="475" height="567" viewBox="0 0 475 567" fill="none" xmlns="http://www.w3.org/2000/svg">
<g opacity="0.2">
<circle r="128.765" transform="matrix(-1 0 0 1 81.7649 129.227)" fill="url(#paint0_linear_23_1035)"/>
<path d="M65.9672 153.462C61.2628 153.462 57.4785 157.318 57.4785 162.111V169.232H50.4891C45.7846 169.232 42.0002 173.088 42.0002 177.881V183.043C42.0002 187.836 45.7846 191.692 50.4891 191.692H57.4785V198.813C57.4785 203.606 61.2628 207.462 65.9672 207.462H71.0333C75.7377 207.462 79.522 203.606 79.522 198.813V191.692H86.5114C91.2159 191.692 95.0002 187.836 95.0002 183.043V177.881C95.0002 173.088 91.2159 169.232 86.5114 169.232H79.522V162.111C79.522 157.318 75.7377 153.462 71.0333 153.462H65.9672Z" stroke="#EB5757" stroke-width="1.99941"/>
<circle r="190.615" transform="matrix(-0.907946 0.419086 0.419086 0.907946 222.047 313.768)" fill="url(#paint1_linear_23_1035)"/>
<path d="M119.533 316.462C112.166 316.462 106.24 322.46 106.24 329.916V340.993H95.2941C87.9266 340.993 82.0002 346.991 82.0002 354.447V362.477C82.0002 369.933 87.9266 375.93 95.2941 375.93H106.24V387.008C106.24 394.464 112.166 400.462 119.533 400.462H127.467C134.834 400.462 140.761 394.464 140.761 387.008V375.93H151.706C159.074 375.93 165 369.933 165 362.477V354.447C165 346.991 159.074 340.993 151.706 340.993H140.761V329.916C140.761 322.46 134.834 316.462 127.467 316.462H119.533Z" stroke="#F7BCBC" stroke-width="1.99941"/>
</g>
<defs>
<linearGradient id="paint0_linear_23_1035" x1="206.9" y1="235.044" x2="34.5568" y2="-2.09804e-05" gradientUnits="userSpaceOnUse">
<stop stop-color="#F7BCBC"/>
<stop stop-color="#ED6A67" stop-opacity="0.61"/>
<stop stop-color="#EE6E6A" stop-opacity="0.796804"/>
<stop offset="1" stop-color="#FBD9D5"/>
</linearGradient>
<linearGradient id="paint1_linear_23_1035" x1="244.03" y1="192.397" x2="58.211" y2="344.27" gradientUnits="userSpaceOnUse">
<stop stop-color="#FCE4DF"/>
<stop offset="0.980742" stop-color="#F8BCAE" stop-opacity="0"/>
</linearGradient>
</defs>
</svg>
