<svg width="26" height="30" viewBox="0 0 26 30" fill="none" xmlns="http://www.w3.org/2000/svg">
<path fill-rule="evenodd" clip-rule="evenodd" d="M13 2.25C10.2815 2.25 7.6744 3.32991 5.75216 5.25216C3.82991 7.1744 2.75 9.78153 2.75 12.5C2.75 16.4731 5.32824 20.2917 8.10095 23.2185C9.46686 24.6603 10.8362 25.8398 11.8651 26.6591C12.3225 27.0233 12.711 27.3151 13 27.5259C13.289 27.3151 13.6775 27.0233 14.1349 26.6591C15.1638 25.8398 16.5331 24.6603 17.899 23.2185C20.6718 20.2917 23.25 16.4731 23.25 12.5C23.25 9.78153 22.1701 7.1744 20.2478 5.25216C18.3256 3.32991 15.7185 2.25 13 2.25ZM13 28.75C12.4453 29.5821 12.445 29.5819 12.4447 29.5817L12.4415 29.5795L12.4336 29.5742L12.4059 29.5554C12.3821 29.5393 12.348 29.516 12.3043 29.4857C12.2168 29.4251 12.0905 29.3365 11.9311 29.2213C11.6123 28.9911 11.1603 28.6545 10.6193 28.2237C9.53883 27.3633 8.09564 26.121 6.64905 24.594C3.79676 21.5833 0.75 17.2769 0.75 12.5C0.75 9.2511 2.04062 6.13526 4.33794 3.83794C6.63526 1.54062 9.7511 0.25 13 0.25C16.2489 0.25 19.3647 1.54062 21.6621 3.83794C23.9594 6.13526 25.25 9.2511 25.25 12.5C25.25 17.2769 22.2032 21.5833 19.351 24.594C17.9044 26.121 16.4612 27.3633 15.3807 28.2237C14.8397 28.6545 14.3877 28.9911 14.0689 29.2213C13.9095 29.3365 13.7832 29.4251 13.6957 29.4857C13.652 29.516 13.6179 29.5393 13.5941 29.5554L13.5664 29.5742L13.5585 29.5795L13.5561 29.5811C13.5558 29.5813 13.5547 29.5821 13 28.75ZM13 28.75L13.5547 29.5821C13.2188 29.806 12.7806 29.8056 12.4447 29.5817L13 28.75ZM13 9.75C11.4812 9.75 10.25 10.9812 10.25 12.5C10.25 14.0188 11.4812 15.25 13 15.25C14.5188 15.25 15.75 14.0188 15.75 12.5C15.75 10.9812 14.5188 9.75 13 9.75ZM8.25 12.5C8.25 9.87665 10.3766 7.75 13 7.75C15.6234 7.75 17.75 9.87665 17.75 12.5C17.75 15.1234 15.6234 17.25 13 17.25C10.3766 17.25 8.25 15.1234 8.25 12.5Z" fill="#EB5757"/>
</svg>
