<svg width="110" height="111" viewBox="0 0 110 111" fill="none" xmlns="http://www.w3.org/2000/svg">
<ellipse rx="31" ry="31.0727" transform="matrix(-1 0 0 1 78.106 79.3447)" fill="url(#paint0_linear_40_287)"/>
<path d="M88.1134 82.2026H9.71082C3.48904 82.2026 1.37309 85.593 1.09285 87.2882C1.02278 87.712 0.924692 90.0853 1.09285 96.1881C1.261 102.291 6.90823 102.828 9.71082 102.333H88.1134C96.353 102.333 98.1327 98.2365 97.9925 96.1881V87.2882C97.9925 81.8636 91.4064 81.6375 88.1134 82.2026Z" stroke="#526E7E" stroke-width="2" stroke-linecap="round"/>
<path d="M9.71078 81.355V71.8194C9.64072 70.0536 10.5936 66.5219 14.9656 66.5219C19.3377 66.5219 38.7877 66.5219 47.9662 66.5219C49.928 66.3806 53.8937 67.2424 54.0618 71.8194C54.23 76.3965 54.1319 80.0836 54.0618 81.355" stroke="#526E7E" stroke-width="2" stroke-linecap="round"/>
<path d="M71.0877 81.5667C73.2597 76.6224 75.0393 63.3433 64.7818 49.7816C64.7818 49.5697 56.5842 51.2649 51.96 44.696C47.3357 38.1271 50.2784 29.8629 54.0619 26.6844C57.8454 23.5059 66.043 23.5059 69.4061 26.6844C72.7692 29.8629 73.8202 31.1343 74.4508 37.9152C78.0241 41.5175 91.2663 58.2576 87.9032 81.5667" stroke="#526E7E" stroke-width="2" stroke-linecap="round"/>
<path d="M53.0109 51.0532C51.1892 53.3841 46.8311 57.5374 43.9725 55.5031C41.1139 53.4689 34.3736 47.8747 31.3608 45.3319C29.3289 43.6367 26.9888 38.7629 33.8832 32.8297C36.4055 29.7783 47.6859 15.4538 53.0109 8.67302C54.1319 6.97782 57.2148 4.26548 60.5779 6.97782C63.941 9.69015 69.9666 14.0412 72.559 15.8776C73.3998 17.0784 74.5768 20.2852 72.559 23.5061" stroke="#526E7E" stroke-width="2" stroke-linecap="round"/>
<path d="M60.7882 6.97764L64.7819 1.89202C65.5526 1.39759 67.5565 0.70538 69.4062 1.89202C71.2559 3.07867 73.54 4.9293 74.4509 5.70629C75.4318 6.48326 77.0993 8.37624 75.9222 9.73241C74.7451 11.0886 73.1897 13.8292 72.5591 15.0299" stroke="#526E7E" stroke-width="2" stroke-linecap="round"/>
<path d="M42.452 55.3065L37.8505 59.8402C37.0238 60.2321 34.949 60.6624 33.2636 59.2488C31.5782 57.8351 29.5455 55.7073 28.7398 54.8201C27.8646 53.9239 26.4488 51.8329 27.787 50.6383C29.1253 49.4436 31.0131 46.9242 31.7897 45.8137" stroke="#526E7E" stroke-width="2" stroke-linecap="round"/>
<path d="M18.5391 76.2695H44.393" stroke="#526E7E" stroke-width="2" stroke-linecap="round"/>
<path d="M11.1823 93.4333H86.8523" stroke="#526E7E" stroke-width="2" stroke-linecap="round"/>
<path d="M60.9165 29.2615C59.6142 29.2615 58.5666 30.3176 58.5666 31.6304V33.581H56.6317C55.3294 33.581 54.2818 34.6371 54.2818 35.95V37.3639C54.2818 38.6768 55.3294 39.7328 56.6317 39.7328H58.5666V41.6833C58.5666 42.9962 59.6142 44.0524 60.9165 44.0524H62.3189C63.6212 44.0524 64.6688 42.9962 64.6688 41.6833V39.7328H66.6036C67.906 39.7328 68.9536 38.6768 68.9536 37.3639V35.95C68.9536 34.6371 67.906 33.581 66.6036 33.581H64.6688V31.6304C64.6688 30.3176 63.6212 29.2615 62.3189 29.2615H60.9165Z" stroke="#526E7E" stroke-width="1.99941"/>
<defs>
<linearGradient id="paint0_linear_40_287" x1="49.8109" y1="56.7192" x2="8.19306" y2="0.0929411" gradientUnits="userSpaceOnUse">
<stop stop-color="#E0D5FA"/>
<stop stop-color="#ED6A67" stop-opacity="0.61"/>
<stop stop-color="#E0D5FA"/>
<stop offset="1" stop-color="#E0D5FA" stop-opacity="0.25"/>
</linearGradient>
</defs>
</svg>
