<svg width="100" height="18" viewBox="0 0 100 18" fill="none" xmlns="http://www.w3.org/2000/svg">
<path d="M5.64876 6.75C5.64876 8.3033 4.38424 9.5625 2.82438 9.5625C1.26452 9.5625 0 8.3033 0 6.75C0 5.1967 1.26452 3.9375 2.82438 3.9375C4.38424 3.9375 5.64876 5.1967 5.64876 6.75Z" fill="#526E7E" fill-opacity="0.57"/>
<path d="M16.9463 2.8125C16.9463 4.3658 15.6818 5.625 14.1219 5.625C12.562 5.625 11.2975 4.3658 11.2975 2.8125C11.2975 1.2592 12.562 0 14.1219 0C15.6818 0 16.9463 1.2592 16.9463 2.8125Z" fill="#526E7E" fill-opacity="0.57"/>
<path d="M28.2438 5.625C28.2438 7.1783 26.9793 8.4375 25.4194 8.4375C23.8596 8.4375 22.5951 7.1783 22.5951 5.625C22.5951 4.0717 23.8596 2.8125 25.4194 2.8125C26.9793 2.8125 28.2438 4.0717 28.2438 5.625Z" fill="#526E7E" fill-opacity="0.57"/>
<path d="M39.5413 12.375C39.5413 13.9283 38.2768 15.1875 36.717 15.1875C35.1571 15.1875 33.8926 13.9283 33.8926 12.375C33.8926 10.8217 35.1571 9.5625 36.717 9.5625C38.2768 9.5625 39.5413 10.8217 39.5413 12.375Z" fill="#526E7E" fill-opacity="0.57"/>
<path d="M50.8389 15.1875C50.8389 16.7408 49.5744 18 48.0145 18C46.4546 18 45.1901 16.7408 45.1901 15.1875C45.1901 13.6342 46.4546 12.375 48.0145 12.375C49.5744 12.375 50.8389 13.6342 50.8389 15.1875Z" fill="#526E7E" fill-opacity="0.57"/>
<path d="M62.1364 12.375C62.1364 13.9283 60.8719 15.1875 59.312 15.1875C57.7522 15.1875 56.4876 13.9283 56.4876 12.375C56.4876 10.8217 57.7522 9.5625 59.312 9.5625C60.8719 9.5625 62.1364 10.8217 62.1364 12.375Z" fill="#526E7E" fill-opacity="0.57"/>
<path d="M73.4339 8.4375C73.4339 9.9908 72.1694 11.25 70.6096 11.25C69.0497 11.25 67.7852 9.9908 67.7852 8.4375C67.7852 6.8842 69.0497 5.625 70.6096 5.625C72.1694 5.625 73.4339 6.8842 73.4339 8.4375Z" fill="#526E7E" fill-opacity="0.57"/>
<path d="M84.7315 8.4375C84.7315 9.9908 83.4669 11.25 81.9071 11.25C80.3472 11.25 79.0827 9.9908 79.0827 8.4375C79.0827 6.8842 80.3472 5.625 81.9071 5.625C83.4669 5.625 84.7315 6.8842 84.7315 8.4375Z" fill="#526E7E" fill-opacity="0.57"/>
<path d="M99.2366 6.92725C100.254 7.64437 100.254 9.15152 99.2366 9.86865L91.9974 14.9691C90.8031 15.8105 89.1552 14.9577 89.1552 13.4984V3.2975C89.1552 1.83815 90.8031 0.985397 91.9974 1.82679L99.2366 6.92725Z" fill="#526E7E" fill-opacity="0.57"/>
</svg>
