<svg width="113" height="114" viewBox="0 0 113 114" fill="none" xmlns="http://www.w3.org/2000/svg">
<path fill-rule="evenodd" clip-rule="evenodd" d="M80.583 18.9382C80.583 8.45319 72.2182 0.000305176 61.805 0.000305176H51.195C40.7818 0.000305176 32.417 8.45319 32.417 18.9382V32.7091H18.7786C8.36513 32.7091 0.000289917 41.1616 0.000289917 51.647V62.353C0.000289917 72.8384 8.36513 81.291 18.7786 81.291H32.417V95.0608C32.417 105.546 40.7817 114 51.195 114H61.805C72.2183 114 80.583 105.546 80.583 95.0608V81.291H94.2214C104.635 81.291 113 72.8384 113 62.353V51.647C113 41.1616 104.635 32.7091 94.2214 32.7091H80.583V18.9382ZM61.805 1.99971C71.0971 1.99971 78.5836 9.54052 78.5836 18.9382V34.7085H94.2214C103.514 34.7085 111 42.249 111 51.647V62.353C111 71.751 103.514 79.2915 94.2214 79.2915H78.5836V95.0608C78.5836 104.459 71.0971 112 61.805 112H51.195C41.9029 112 34.4164 104.459 34.4164 95.0608V79.2915H18.7786C9.48616 79.2915 1.99969 71.751 1.99969 62.353V51.647C1.99969 42.249 9.48616 34.7085 18.7786 34.7085H34.4164V18.9382C34.4164 9.54052 41.9029 1.99971 51.195 1.99971H61.805Z" fill="#F8D8D8"/>
</svg>
